<svg width="128" height="128" viewBox="0 0 128 128" fill="none" xmlns="http://www.w3.org/2000/svg">
  <path
    d="M121.924 66.8999C121.974 67.8935 122 68.8937 122 69.8999C122 101.932 96.0325 127.9 64 127.9C31.9675 127.9 6 101.932 6 69.8999C6 68.8937 6.02457 67.8935 6.0752 66.8999C7.63626 97.5382 32.9737 121.9 64 121.9C95.0263 121.9 120.363 97.5382 121.924 66.8999Z"
    fill="black" fill-opacity="0.333333" />
  <circle cx="64" cy="64" r="58" fill="#EDC05E" />
  <path
    d="M64 6C96.0325 6 122 31.9675 122 64C122 65.0062 121.974 66.0064 121.924 67C120.363 36.3617 95.0263 12 64 12C32.9737 12 7.63626 36.3617 6.0752 67C6.02457 66.0064 6 65.0062 6 64C6 31.9675 31.9675 6 64 6Z"
    fill="white" fill-opacity="0.333333" />
  <path
    d="M63.5 40.3486C62.5434 40.3486 61.7257 40.0091 61.0469 39.3303C60.368 38.6514 60.0286 37.8337 60.0286 36.8771V29.4714C60.0286 28.5149 60.368 27.6971 61.0469 27.0183C61.7257 26.3394 62.5434 26 63.5 26C64.4566 26 65.2743 26.3394 65.9531 27.0183C66.632 27.6971 66.9714 28.5149 66.9714 29.4714V36.8771C66.9714 37.8337 66.632 38.6514 65.9531 39.3303C65.2743 40.0091 64.4566 40.3486 63.5 40.3486ZM82.0143 47.9857C81.3354 47.3377 81.0037 46.5431 81.0191 45.602C81.0346 44.6609 81.3663 43.8509 82.0143 43.172L87.1983 37.8954C87.908 37.1857 88.7257 36.8309 89.6514 36.8309C90.5771 36.8309 91.3949 37.1857 92.1046 37.8954C92.7834 38.5434 93.1151 39.3457 93.0997 40.3023C93.0843 41.2589 92.7526 42.0611 92.1046 42.7091L86.828 47.9857C86.18 48.6337 85.3777 48.9577 84.4211 48.9577C83.4646 48.9577 82.6623 48.6337 82.0143 47.9857ZM93.1229 69.9714C92.1663 69.9714 91.3486 69.632 90.6697 68.9531C89.9909 68.2743 89.6514 67.4566 89.6514 66.5C89.6514 65.5434 89.9909 64.7257 90.6697 64.0469C91.3486 63.368 92.1663 63.0286 93.1229 63.0286H100.529C101.485 63.0286 102.303 63.368 102.982 64.0469C103.661 64.7257 104 65.5434 104 66.5C104 67.4566 103.661 68.2743 102.982 68.9531C102.303 69.632 101.485 69.9714 100.529 69.9714H93.1229ZM63.5 107C62.5434 107 61.7257 106.661 61.0469 105.982C60.368 105.303 60.0286 104.485 60.0286 103.529V96.1229C60.0286 95.1663 60.368 94.3486 61.0469 93.6697C61.7257 92.9909 62.5434 92.6514 63.5 92.6514C64.4566 92.6514 65.2743 92.9909 65.9531 93.6697C66.632 94.3486 66.9714 95.1663 66.9714 96.1229V103.529C66.9714 104.485 66.632 105.303 65.9531 105.982C65.2743 106.661 64.4566 107 63.5 107ZM40.172 47.9857L34.8954 42.8017C34.1857 42.1229 33.8309 41.3051 33.8309 40.3486C33.8309 39.392 34.1857 38.5743 34.8954 37.8954C35.5743 37.2474 36.3843 36.9234 37.3254 36.9234C38.2666 36.9234 39.0611 37.2474 39.7091 37.8954L44.9857 43.172C45.6337 43.82 45.9654 44.6223 45.9809 45.5789C45.9963 46.5354 45.68 47.3377 45.032 47.9857C44.3223 48.6646 43.5123 49.004 42.602 49.004C41.6917 49.004 40.8817 48.6646 40.172 47.9857ZM87.1983 95.1509L82.0143 89.8743C81.3663 89.1646 81.0423 88.3391 81.0423 87.398C81.0423 86.4569 81.3663 85.6623 82.0143 85.0143C82.6623 84.3663 83.4569 84.0423 84.398 84.0423C85.3391 84.0423 86.1491 84.3663 86.828 85.0143L92.1509 90.1983C92.8606 90.8463 93.2 91.6486 93.1691 92.6051C93.1383 93.5617 92.7834 94.3949 92.1046 95.1046C91.4257 95.8143 90.6003 96.1769 89.6283 96.1923C88.6563 96.2077 87.8463 95.8606 87.1983 95.1509ZM26.4714 69.9714C25.5149 69.9714 24.6971 69.632 24.0183 68.9531C23.3394 68.2743 23 67.4566 23 66.5C23 65.5434 23.3394 64.7257 24.0183 64.0469C24.6971 63.368 25.5149 63.0286 26.4714 63.0286H33.8771C34.8337 63.0286 35.6514 63.368 36.3303 64.0469C37.0091 64.7257 37.3486 65.5434 37.3486 66.5C37.3486 67.4566 37.0091 68.2743 36.3303 68.9531C35.6514 69.632 34.8337 69.9714 33.8771 69.9714H26.4714ZM34.8954 95.1509C34.2166 94.472 33.8771 93.662 33.8771 92.7209C33.8771 91.7797 34.2166 90.9697 34.8954 90.2909L40.172 85.0143C40.82 84.3663 41.6146 84.0423 42.5557 84.0423C43.4969 84.0423 44.3069 84.3663 44.9857 85.0143C45.6954 85.724 46.0503 86.5417 46.0503 87.4674C46.0503 88.3931 45.6954 89.2109 44.9857 89.9206L39.8017 95.1046C39.092 95.8143 38.2589 96.1691 37.3023 96.1691C36.3457 96.1691 35.5434 95.8297 34.8954 95.1509ZM63.5 88.4857C57.3903 88.4857 52.1986 86.3489 47.9249 82.0751C43.6511 77.8014 41.5143 72.6097 41.5143 66.5C41.5143 60.3903 43.6511 55.1986 47.9249 50.9249C52.1986 46.6511 57.3903 44.5143 63.5 44.5143C69.6097 44.5143 74.8014 46.6511 79.0751 50.9249C83.3489 55.1986 85.4857 60.3903 85.4857 66.5C85.4857 72.6097 83.3489 77.8014 79.0751 82.0751C74.8014 86.3489 69.6097 88.4857 63.5 88.4857Z"
    fill="black" fill-opacity="0.333333" />
  <path
    d="M63.5 37.3486C62.5434 37.3486 61.7257 37.0091 61.0469 36.3303C60.368 35.6514 60.0286 34.8337 60.0286 33.8771V26.4714C60.0286 25.5149 60.368 24.6971 61.0469 24.0183C61.7257 23.3394 62.5434 23 63.5 23C64.4566 23 65.2743 23.3394 65.9531 24.0183C66.632 24.6971 66.9714 25.5149 66.9714 26.4714V33.8771C66.9714 34.8337 66.632 35.6514 65.9531 36.3303C65.2743 37.0091 64.4566 37.3486 63.5 37.3486ZM82.0143 44.9857C81.3354 44.3377 81.0037 43.5431 81.0191 42.602C81.0346 41.6609 81.3663 40.8509 82.0143 40.172L87.1983 34.8954C87.908 34.1857 88.7257 33.8309 89.6514 33.8309C90.5771 33.8309 91.3949 34.1857 92.1046 34.8954C92.7834 35.5434 93.1151 36.3457 93.0997 37.3023C93.0843 38.2589 92.7526 39.0611 92.1046 39.7091L86.828 44.9857C86.18 45.6337 85.3777 45.9577 84.4211 45.9577C83.4646 45.9577 82.6623 45.6337 82.0143 44.9857ZM93.1229 66.9714C92.1663 66.9714 91.3486 66.632 90.6697 65.9531C89.9909 65.2743 89.6514 64.4566 89.6514 63.5C89.6514 62.5434 89.9909 61.7257 90.6697 61.0469C91.3486 60.368 92.1663 60.0286 93.1229 60.0286H100.529C101.485 60.0286 102.303 60.368 102.982 61.0469C103.661 61.7257 104 62.5434 104 63.5C104 64.4566 103.661 65.2743 102.982 65.9531C102.303 66.632 101.485 66.9714 100.529 66.9714H93.1229ZM63.5 104C62.5434 104 61.7257 103.661 61.0469 102.982C60.368 102.303 60.0286 101.485 60.0286 100.529V93.1229C60.0286 92.1663 60.368 91.3486 61.0469 90.6697C61.7257 89.9909 62.5434 89.6514 63.5 89.6514C64.4566 89.6514 65.2743 89.9909 65.9531 90.6697C66.632 91.3486 66.9714 92.1663 66.9714 93.1229V100.529C66.9714 101.485 66.632 102.303 65.9531 102.982C65.2743 103.661 64.4566 104 63.5 104ZM40.172 44.9857L34.8954 39.8017C34.1857 39.1229 33.8309 38.3051 33.8309 37.3486C33.8309 36.392 34.1857 35.5743 34.8954 34.8954C35.5743 34.2474 36.3843 33.9234 37.3254 33.9234C38.2666 33.9234 39.0611 34.2474 39.7091 34.8954L44.9857 40.172C45.6337 40.82 45.9654 41.6223 45.9809 42.5789C45.9963 43.5354 45.68 44.3377 45.032 44.9857C44.3223 45.6646 43.5123 46.004 42.602 46.004C41.6917 46.004 40.8817 45.6646 40.172 44.9857ZM87.1983 92.1509L82.0143 86.8743C81.3663 86.1646 81.0423 85.3391 81.0423 84.398C81.0423 83.4569 81.3663 82.6623 82.0143 82.0143C82.6623 81.3663 83.4569 81.0423 84.398 81.0423C85.3391 81.0423 86.1491 81.3663 86.828 82.0143L92.1509 87.1983C92.8606 87.8463 93.2 88.6486 93.1691 89.6051C93.1383 90.5617 92.7834 91.3949 92.1046 92.1046C91.4257 92.8143 90.6003 93.1769 89.6283 93.1923C88.6563 93.2077 87.8463 92.8606 87.1983 92.1509ZM26.4714 66.9714C25.5149 66.9714 24.6971 66.632 24.0183 65.9531C23.3394 65.2743 23 64.4566 23 63.5C23 62.5434 23.3394 61.7257 24.0183 61.0469C24.6971 60.368 25.5149 60.0286 26.4714 60.0286H33.8771C34.8337 60.0286 35.6514 60.368 36.3303 61.0469C37.0091 61.7257 37.3486 62.5434 37.3486 63.5C37.3486 64.4566 37.0091 65.2743 36.3303 65.9531C35.6514 66.632 34.8337 66.9714 33.8771 66.9714H26.4714ZM34.8954 92.1509C34.2166 91.472 33.8771 90.662 33.8771 89.7209C33.8771 88.7797 34.2166 87.9697 34.8954 87.2909L40.172 82.0143C40.82 81.3663 41.6146 81.0423 42.5557 81.0423C43.4969 81.0423 44.3069 81.3663 44.9857 82.0143C45.6954 82.724 46.0503 83.5417 46.0503 84.4674C46.0503 85.3931 45.6954 86.2109 44.9857 86.9206L39.8017 92.1046C39.092 92.8143 38.2589 93.1691 37.3023 93.1691C36.3457 93.1691 35.5434 92.8297 34.8954 92.1509ZM63.5 85.4857C57.3903 85.4857 52.1986 83.3489 47.9249 79.0751C43.6511 74.8014 41.5143 69.6097 41.5143 63.5C41.5143 57.3903 43.6511 52.1986 47.9249 47.9249C52.1986 43.6511 57.3903 41.5143 63.5 41.5143C69.6097 41.5143 74.8014 43.6511 79.0751 47.9249C83.3489 52.1986 85.4857 57.3903 85.4857 63.5C85.4857 69.6097 83.3489 74.8014 79.0751 79.0751C74.8014 83.3489 69.6097 85.4857 63.5 85.4857Z"
    fill="black" />
</svg>