<svg width="128" height="128" viewBox="0 0 128 128" fill="none" xmlns="http://www.w3.org/2000/svg">
  <path
    d="M121.924 66.8999C121.974 67.8935 122 68.8937 122 69.8999C122 101.932 96.0325 127.9 64 127.9C31.9675 127.9 6 101.932 6 69.8999C6 68.8937 6.02457 67.8935 6.0752 66.8999C7.63626 97.5382 32.9737 121.9 64 121.9C95.0263 121.9 120.363 97.5382 121.924 66.8999Z"
    fill="black" fill-opacity="0.333333" />
  <circle cx="64" cy="64" r="58" fill="#6ED871" />
  <path
    d="M64 6C96.0325 6 122 31.9675 122 64C122 65.0062 121.974 66.0064 121.924 67C120.363 36.3617 95.0263 12 64 12C32.9737 12 7.63626 36.3617 6.0752 67C6.02457 66.0064 6 65.0062 6 64C6 31.9675 31.9675 6 64 6Z"
    fill="white" fill-opacity="0.333333" />
  <path
    d="M95.8123 66.5681C95.8123 60.2918 94.1439 54.5518 90.8072 49.3481C87.4705 44.1444 83.0016 40.2317 77.4007 37.61C76.2884 37.0936 75.494 36.2991 75.0173 35.2266C74.5406 34.1541 74.5009 33.0617 74.8981 31.9494C75.3351 30.7577 76.1097 29.9037 77.2219 29.3873C78.3342 28.8709 79.4663 28.8709 80.6183 29.3873C87.9273 32.6843 93.7765 37.6696 98.1659 44.343C102.555 51.0165 104.75 58.4248 104.75 66.5681C104.75 74.7113 102.555 82.1196 98.1659 88.7931C93.7765 95.4666 87.9273 100.452 80.6183 103.749C79.4663 104.265 78.3342 104.265 77.2219 103.749C76.1097 103.232 75.3351 102.378 74.8981 101.187C74.5009 100.074 74.5406 98.9821 75.0173 97.9095C75.494 96.837 76.2884 96.0426 77.4007 95.5262C83.0016 92.9044 87.4705 88.9917 90.8072 83.788C94.1439 78.5843 95.8123 72.8443 95.8123 66.5681ZM41.4712 80.2129H27.4688C26.2374 80.2129 25.1848 79.776 24.3109 78.9021C23.437 78.0282 23 76.9755 23 75.7441V57.5112C23 56.2798 23.437 55.2271 24.3109 54.3532C25.1848 53.4793 26.2374 53.0424 27.4688 53.0424H41.4712L56.7249 37.7887C58.1549 36.3587 59.7835 36.031 61.6108 36.8056C63.438 37.5802 64.3517 38.9606 64.3517 40.9467V92.3086C64.3517 94.2947 63.438 95.6751 61.6108 96.4497C59.7835 97.2243 58.1549 96.8966 56.7249 95.4666L41.4712 80.2129ZM85.4446 66.6276C85.4446 69.9644 84.6501 73.1124 83.0612 76.0718C81.4723 79.0312 79.3471 81.4046 76.6857 83.1922C75.9309 83.6291 75.1762 83.639 74.4215 83.2219C73.6667 82.8048 73.2894 82.1593 73.2894 81.2854V51.8507C73.2894 50.9768 73.6667 50.3313 74.4215 49.9142C75.1762 49.4971 75.9309 49.507 76.6857 49.944C79.3471 51.7712 81.4723 54.1745 83.0612 57.1537C84.6501 60.1329 85.4446 63.2909 85.4446 66.6276Z"
    fill="black" fill-opacity="0.3333" />
  <path
    d="M95.8123 63.5681C95.8123 57.2918 94.1439 51.5518 90.8072 46.3481C87.4705 41.1444 83.0016 37.2317 77.4007 34.61C76.2884 34.0936 75.494 33.2991 75.0173 32.2266C74.5406 31.1541 74.5009 30.0617 74.8981 28.9494C75.3351 27.7577 76.1097 26.9037 77.2219 26.3873C78.3342 25.8709 79.4663 25.8709 80.6183 26.3873C87.9273 29.6843 93.7765 34.6696 98.1659 41.343C102.555 48.0165 104.75 55.4248 104.75 63.5681C104.75 71.7113 102.555 79.1196 98.1659 85.7931C93.7765 92.4666 87.9273 97.4518 80.6183 100.749C79.4663 101.265 78.3342 101.265 77.2219 100.749C76.1097 100.232 75.3351 99.3784 74.8981 98.1867C74.5009 97.0744 74.5406 95.9821 75.0173 94.9095C75.494 93.837 76.2884 93.0426 77.4007 92.5262C83.0016 89.9044 87.4705 85.9917 90.8072 80.788C94.1439 75.5843 95.8123 69.8443 95.8123 63.5681ZM41.4712 77.2129H27.4688C26.2374 77.2129 25.1848 76.776 24.3109 75.9021C23.437 75.0282 23 73.9755 23 72.7441V54.5112C23 53.2798 23.437 52.2271 24.3109 51.3532C25.1848 50.4793 26.2374 50.0424 27.4688 50.0424H41.4712L56.7249 34.7887C58.1549 33.3587 59.7835 33.031 61.6108 33.8056C63.438 34.5802 64.3517 35.9606 64.3517 37.9467V89.3086C64.3517 91.2947 63.438 92.6751 61.6108 93.4497C59.7835 94.2243 58.1549 93.8966 56.7249 92.4666L41.4712 77.2129ZM85.4446 63.6276C85.4446 66.9644 84.6501 70.1124 83.0612 73.0718C81.4723 76.0312 79.3471 78.4046 76.6857 80.1922C75.9309 80.6291 75.1762 80.639 74.4215 80.2219C73.6667 79.8048 73.2894 79.1593 73.2894 78.2854V48.8507C73.2894 47.9768 73.6667 47.3313 74.4215 46.9142C75.1762 46.4971 75.9309 46.507 76.6857 46.944C79.3471 48.7712 81.4723 51.1745 83.0612 54.1537C84.6501 57.1329 85.4446 60.2909 85.4446 63.6276Z"
    fill="black" />
</svg>